# xmcd
#
# Track frame offsets: 
#        150
#        11244
#        29491
#        45347
#        56761
#        77770
#        92317
#        112177
#        124775
#        152892
#
# Disc length: 2307 seconds
#
# Revision: 0
# Processed by: cddbd v1.5.2PL0 Copyright (c) Steve Scherf et al.
# Submitted via: ExactAudioCopyFreeDBPlugin 1.0
#
DISCID=7b09010a
DTITLE=Ivan Rosenberg - Ashes and Coals
DYEAR=2005
DGENRE=Old-Time
TTITLE0=Here This Morning
TTITLE1=100 Years
TTITLE2=Ashes and Coals
TTITLE3=Slow Orbit
TTITLE4=Riverbed
TTITLE5=Miles Back
TTITLE6=Wait for a Story
TTITLE7=Flying Fox
TTITLE8=Low Voices
TTITLE9=The Air That Day - Perezoso Waltz
EXTD=
EXTT0=
EXTT1=
EXTT2=
EXTT3=
EXTT4=
EXTT5=
EXTT6=
EXTT7=
EXTT8=
EXTT9=
PLAYORDER=
